<svg xmlns="http://www.w3.org/2000/svg" viewBox="0 0 100 100">
  <path fill="#FFD43B" d="M50 0C36.7 0 37.3 5.4 37.3 5.4l.1 5.6h13v1.8H32.1S22 11.9 22 25.3c0 13.4 8.7 13 8.7 13h5.2v-6.3s-.3-8.7 8.6-8.7h13.8s7.8.1 7.8-7.5V5.5S67.5 0 50 0zm-7.2 4.2c1.3 0 2.3 1 2.3 2.3s-1 2.3-2.3 2.3-2.3-1-2.3-2.3 1-2.3 2.3-2.3z"/>
  <path fill="#3776AB" d="M50 100c13.3 0 12.7-5.4 12.7-5.4l-.1-5.6h-13v-1.8h18.2s10.1-.9 10.1-14.3c0-13.4-8.7-13-8.7-13h-5.2v6.3s.3 8.7-8.6 8.7H41.6s-7.8-.1-7.8 7.5v10.3S32.5 100 50 100zm7.2-4.2c-1.3 0-2.3-1-2.3-2.3s1-2.3 2.3-2.3 2.3 1 2.3 2.3-1 2.3-2.3 2.3z"/>
</svg>
